<svg height="512pt" viewBox="0 0 512 512" width="512pt" xmlns="http://www.w3.org/2000/svg"><path d="m512 256c0 141.386719-114.613281 256-256 256s-256-114.613281-256-256 114.613281-256 256-256 256 114.613281 256 256zm0 0" fill="#10bb66"/><path d="m504.597656 317.285156-199.429687-199.429687-96.222657 98.429687-73.945312 55.847656 15.511719 15v127.71875l96.996093 96.992188c2.820313.09375 5.648438.15625 8.492188.15625 120.257812 0 221.132812-82.929688 248.597656-194.714844zm0 0" fill="#0ca655"/><path d="m256 234.902344c-37.980469 0-68.878906-30.898438-68.878906-68.875 0-37.980469 30.898437-68.878906 68.878906-68.878906s68.878906 30.898437 68.878906 68.878906c0 37.976562-30.898437 68.875-68.878906 68.875zm0 0" fill="#fedb41"/><path d="m268.929688 156.796875c-1.007813-.636719-2.105469-1.230469-3.292969-1.777344-1.003907-.5-2.136719-.96875-3.394531-1.402343-1.257813-.429688-2.527344-.761719-3.808594-.988282v6.152344c.414062.089844.847656.214844 1.304687.375s.9375.308594 1.441407.445312c2.238281.683594 4.261718 1.4375 6.066406 2.257813 1.808594.820313 3.351562 1.789063 4.632812 2.902344 1.277344 1.117187 2.261719 2.472656 2.949219 4.066406.683594 1.597656 1.027344 3.535156 1.027344 5.8125 0 2.691406-.46875 4.980469-1.40625 6.871094s-2.171875 3.441406-3.703125 4.648437c-1.53125 1.207032-3.28125 2.121094-5.246094 2.734375-1.96875.617188-4.003906.992188-6.105469 1.128907v8.273437h-5.488281v-8.410156c-3.152344-.273438-6.285156-.890625-9.394531-1.847657-3.109375-.953124-5.898438-2.160156-8.367188-3.621093l5.761719-11.691407c1.234375.777344 2.558594 1.503907 3.976562 2.1875 1.1875.59375 2.570313 1.175782 4.148438 1.746094 1.578125.570313 3.191406.96875 4.835938 1.195313v-6.015625c-1.417969-.363282-2.835938-.796875-4.253907-1.300782-2.148437-.726562-4-1.515624-5.554687-2.355468-1.554688-.84375-2.835938-1.800782-3.839844-2.871094-1.007812-1.074219-1.75-2.292969-2.230469-3.660156-.480469-1.367188-.71875-2.9375-.71875-4.714844 0-2.460938.410157-4.636719 1.234375-6.53125.824219-1.890625 1.941406-3.519531 3.359375-4.886719 1.417969-1.367187 3.078125-2.460937 4.976563-3.28125 1.894531-.820312 3.917968-1.34375 6.066406-1.574219v-6.902343h5.488281v6.972656c1.507813.183594 2.972657.457031 4.390625.820313 1.417969.367187 2.777344.789062 4.082032 1.265624 1.300781.480469 2.523437.980469 3.667968 1.503907 1.144532.523437 2.195313 1.015625 3.15625 1.46875zm-16.804688-2.050781c0 .683594.226562 1.242187.6875 1.675781.457031.433594 1.140625.832031 2.054688 1.195313v-5.195313c-1.828126.226563-2.742188 1.003906-2.742188 2.324219zm9.328125 21.191406c0-.636719-.273437-1.195312-.824219-1.675781-.546875-.476563-1.28125-.898438-2.195312-1.261719v5.058594c1.097656-.089844 1.875-.320313 2.332031-.683594.457031-.367188.6875-.84375.6875-1.4375zm0 0" fill="#fe9922"/><path d="m324.878906 166.027344c0-37.980469-30.898437-68.878906-68.878906-68.878906v137.753906c37.980469 0 68.878906-30.898438 68.878906-68.875zm0 0" fill="#fcbf27"/><path d="m271.878906 164.761719c-1.28125-1.117188-2.824218-2.085938-4.632812-2.90625-1.804688-.820313-3.828125-1.574219-6.066406-2.253907-.503907-.136718-.984376-.285156-1.441407-.445312s-.890625-.285156-1.304687-.378906v-6.148438c1.28125.226563 2.550781.558594 3.808594.988282 1.257812.433593 2.390624.902343 3.394531 1.402343 1.1875.546875 2.285156 1.140625 3.292969 1.777344l5.761718-11.007813c-.960937-.453124-2.015625-.945312-3.15625-1.46875-1.144531-.523437-2.367187-1.027343-3.667968-1.503906-1.304688-.480468-2.664063-.898437-4.082032-1.265625-1.417968-.363281-2.882812-.636719-4.390625-.820312v-6.972657h-3.394531v64.53125h3.394531v-8.269531c2.101563-.136719 4.136719-.511719 6.105469-1.128906 1.964844-.613281 3.714844-1.527344 5.246094-2.734375s2.765625-2.757812 3.703125-4.648438c.9375-1.890624 1.40625-4.179687 1.40625-6.871093 0-2.277344-.34375-4.214844-1.027344-5.808594-.6875-1.59375-1.671875-2.949219-2.949219-4.066406zm-11.113281 12.609375c-.457031.367187-1.234375.59375-2.332031.6875v-5.058594c.914062.363281 1.648437.785156 2.195312 1.261719.550782.480469.824219 1.039062.824219 1.675781 0 .59375-.230469 1.070312-.6875 1.433594zm0 0" fill="#fe8722"/><path d="m361.488281 414.851562h-210.976562v-161.332031h210.976562zm0 0" fill="#fedbab"/><path d="m256 253.519531h105.488281v161.332031h-105.488281zm0 0" fill="#fec478"/><path d="m377 272.132812h-242v-55.847656h242zm0 0" fill="#896648"/><path d="m256 378.636719-40.222656-40.21875c-10.886719-10.886719-10.886719-28.601563 0-39.488281 10.886718-10.890626 28.605468-10.886719 39.488281 0l.734375.730468.730469-.730468c10.890625-10.890626 28.605469-10.886719 39.492187 0 10.886719 10.886718 10.886719 28.601562 0 39.488281zm0 0" fill="#fe73b1"/><path d="m296.222656 338.414062c10.886719-10.886718 10.886719-28.601562 0-39.488281-10.886718-10.886719-28.601562-10.886719-39.492187 0l-.730469.734375v78.976563zm0 0" fill="#fe52a1"/><path d="m256 216.285156h121v55.847656h-121zm0 0" fill="#73543a"/></svg>